<?xml version="1.0" encoding="UTF-8"?>
<svg id="Layer_1" data-name="Layer 1" xmlns="http://www.w3.org/2000/svg" viewBox="0 0 32 32">
  <defs>
    <style>
      .cls-1 {
        fill: #fff;
      }
    </style>
  </defs>
  <rect y="0" width="32" height="32"/>
  <path class="cls-1" d="M27.54,13.69v9.23h-6.44c1.13-1.21,1.82-2.83,1.82-4.62v-3.06c0-.86-.7-1.56-1.56-1.56h-3.06v4.62h2.46c0,1.77-1,3.31-2.46,4.09-.63.33-1.35.53-2.11.53h-4.32c.39-.41.72-.88,1-1.38.53-.96.82-2.07.82-3.24h0v-3.06c0-.2-.04-.39-.11-.57h0c-.02-.05-.04-.11-.07-.16-.26-.5-.78-.83-1.38-.83h-3.06v4.62h2.46c0,1.26-.51,2.41-1.33,3.24-.33.34-.71.62-1.14.85-.64.34-1.37.53-2.15.53h-2.46v-8.52s0,0,0,0v-.71c0-.65.13-1.26.37-1.82.71-1.64,2.34-2.79,4.24-2.79h0s13.85,0,13.85,0h0c2.55,0,4.62,2.07,4.62,4.62h0Z"/>
</svg>